<?xml version="1.0" encoding="UTF-8" standalone="no"?>
<!-- Created with Inkscape (http://www.inkscape.org/) -->

<svg
   width="210mm"
   height="297mm"
   viewBox="0 0 210 297"
   version="1.1"
   id="svg134"
   inkscape:version="1.2.1 (9c6d41e410, 2022-07-14)"
   sodipodi:docname="logo.svg"
   xmlns:inkscape="http://www.inkscape.org/namespaces/inkscape"
   xmlns:sodipodi="http://sodipodi.sourceforge.net/DTD/sodipodi-0.dtd"
   xmlns="http://www.w3.org/2000/svg"
   xmlns:svg="http://www.w3.org/2000/svg">
  <sodipodi:namedview
     id="namedview136"
     pagecolor="#ffffff"
     bordercolor="#000000"
     borderopacity="0.25"
     inkscape:showpageshadow="2"
     inkscape:pageopacity="0.0"
     inkscape:pagecheckerboard="0"
     inkscape:deskcolor="#d1d1d1"
     inkscape:document-units="mm"
     showgrid="false"
     inkscape:zoom="0.41053452"
     inkscape:cx="293.51978"
     inkscape:cy="626.01314"
     inkscape:window-width="1366"
     inkscape:window-height="705"
     inkscape:window-x="-8"
     inkscape:window-y="-8"
     inkscape:window-maximized="1"
     inkscape:current-layer="layer1" />
  <defs
     id="defs131" />
  <g
     inkscape:label="Capa 1"
     inkscape:groupmode="layer"
     id="layer1">
    <path
       style="fill:#010101;stroke:#000000;stroke-width:4.56356;stroke-linecap:round;stroke-linejoin:round;stroke-miterlimit:10.2;paint-order:stroke markers fill"
       d="M 102.50962,50.00448 A 102.50484,97.434913 0 0 0 2.3337138,149.51734 102.50484,97.434913 0 0 0 106.93286,244.82967 102.50484,97.434913 0 0 0 207.29958,145.49025 l -53.4074,1.00327 a 49.08705,46.659187 0 0 1 -48.06369,47.57062 49.08705,46.659187 0 0 1 -50.089666,-45.64204 49.08705,46.659187 0 0 1 47.972296,-47.65444 49.08705,46.659187 0 0 1 50.17642,45.55593 l 53.40395,-1.18832 A 102.50484,97.434913 0 0 0 102.50962,50.00448 Z"
       id="path7724" />
  </g>
</svg>
