<?xml version="1.0" encoding="UTF-8" standalone="no"?>
<!-- Created with Inkscape (http://www.inkscape.org/) -->

<svg
   width="210mm"
   height="297mm"
   viewBox="0 0 210 297"
   version="1.1"
   id="svg5"
   xml:space="preserve"
   inkscape:version="1.2.1 (9c6d41e410, 2022-07-14)"
   sodipodi:docname="logo.svg"
   xmlns:inkscape="http://www.inkscape.org/namespaces/inkscape"
   xmlns:sodipodi="http://sodipodi.sourceforge.net/DTD/sodipodi-0.dtd"
   xmlns="http://www.w3.org/2000/svg"
   xmlns:svg="http://www.w3.org/2000/svg"><sodipodi:namedview
     id="namedview7"
     pagecolor="#ffffff"
     bordercolor="#000000"
     borderopacity="0.25"
     inkscape:showpageshadow="2"
     inkscape:pageopacity="0.0"
     inkscape:pagecheckerboard="0"
     inkscape:deskcolor="#d1d1d1"
     inkscape:document-units="mm"
     showgrid="false"
     inkscape:zoom="0.46769781"
     inkscape:cx="528.11879"
     inkscape:cy="498.18493"
     inkscape:window-width="1366"
     inkscape:window-height="705"
     inkscape:window-x="-8"
     inkscape:window-y="-8"
     inkscape:window-maximized="1"
     inkscape:current-layer="layer1" /><defs
     id="defs2" /><g
     inkscape:label="Capa 1"
     inkscape:groupmode="layer"
     id="layer1"><path
       style="fill:#ffffff;stroke:#f9f9f9;stroke-width:2.68899;stroke-linecap:round;stroke-linejoin:round;stroke-miterlimit:10.2;stroke-dasharray:1.34452, 1.34452;paint-order:stroke markers fill;stroke-opacity:1"
       d="m 17.537143,42.994286 c -2.553309,2.244749 -1.070769,2.974943 -2.262857,5.657143 -0.446571,1.004782 -1.131429,1.885712 -1.697143,2.828571 -0.565715,2.074285 -0.942212,4.209706 -1.697143,6.222857 -0.948009,2.528025 -2.3915563,4.84746 -3.3942858,7.354284 -0.1400673,0.350171 -0.203943,1.448673 0,1.13143 3.5747168,-5.560671 6.3750068,-11.515196 9.0514288,-17.537142 0.765861,-1.723189 0.662118,-7.422792 0,-5.657143 -8.7477144,23.327238 3.680758,1.31518 -3.394286,10.748571 -1.300092,1.733454 -1.131429,1.807151 -1.131429,3.394286 0,0.188571 -0.08433,-0.397052 0,-0.565716 4.022231,-8.04446 -1.143548,1.14355 -2.828571,2.828573 -0.13334,0.133339 -0.07659,-0.393396 0,-0.565716 1.691486,-3.805844 2.502955,-3.772506 2.828571,-7.354284 0.102435,-1.126781 0.706798,-4.277784 0,-3.394287 C 12.455216,48.78098 9.5677637,58.057528 9.0514285,59.4 7.716521,62.870759 4.8211803,65.327392 2.2628571,67.885714"
       id="path5409" /><path
       id="path7724"
       style="fill:#010101;stroke:#000000;stroke-width:4.50005;stroke-linecap:round;stroke-linejoin:round;stroke-miterlimit:10.2;paint-order:stroke markers fill"
       d="M 102.63808,61.240095 A 101.40517,95.769534 0 0 0 3.5368625,159.05203 101.40517,95.769534 0 0 0 107.01387,252.73526 101.40517,95.769534 0 0 0 206.30385,155.09378 l -52.83445,0.98612 a 48.560444,45.861678 0 0 1 -47.54806,46.75754 48.560444,45.861678 0 0 1 -49.5523,-44.86193 48.560444,45.861678 0 0 1 47.45766,-46.83991 48.560444,45.861678 0 0 1 49.63811,44.77727 l 52.83105,-1.16801 A 101.40517,95.769534 0 0 0 102.63808,61.240095 Z" /></g></svg>
